# xmcd
#
# Track frame offsets: 
#        150
#        9675
#        22623
#        31837
#        41538
#        50734
#        64905
#        74531
#        85273
#        93831
#        104895
#        116533
#        129899
#        139246
#        149683
#        160649
#        172218
#        181679
#        194459
#
# Disc length: 2759 seconds
#
# Revision: 2
# Processed by: cddbd v1.5.2PL0 Copyright (c) Steve Scherf et al.
# Submitted via: ExactAudioCopy v1.1
#
DISCID=0b0ac513
DTITLE=Various Artist - Honeybeat - Groovy 60s Girl-Pop (
DYEAR=2017
DGENRE=Pop
TTITLE0=The What Four - I'm Gonna Destroy That Boy (mono)
TTITLE1=The Sweet Things - You're My Loving Baby (mono)
TTITLE2=The Lollipops - Don't Monkey With Me (mono)
TTITLE3=Linda Carr - Sweet Hunk Of Misery (mono)
TTITLE4=Gia Mateo - If You Can't Say Anything Nice (mono)
TTITLE5=Sandi Sheldon - Baby You're Mine (mono)
TTITLE6=Skeeter Davis - I Can't Stay Mad At You (mono)
TTITLE7=Erma Franklin - I Don't Want No Mama's Boy (mono)
TTITLE8=The Pussycats - The Rider (mono)
TTITLE9=April Young - Gonna Make Him My Baby (mono)
TTITLE10=The Glories - No News (mono)
TTITLE11=The Avons - Be Good To Your Baby (mono)
TTITLE12=Andrea Carroll - Gee Dad (mono)
TTITLE13=Sandra Phillips - I Wish I Had Known (mono)
TTITLE14=Carmen Cole - I Just Don't Understand (mono)
TTITLE15=Little Eva - Stand By Me (mono)
TTITLE16=Nichelle Nichols - Why Don't You Do Right (mono)
TTITLE17=Tracey Dey - Hangin' On To My Baby (mono)
TTITLE18=Dorothy Jones - Talk That Sweet Talk (mono)
EXTD=
EXTT0=
EXTT1=
EXTT2=
EXTT3=
EXTT4=
EXTT5=
EXTT6=
EXTT7=
EXTT8=
EXTT9=
EXTT10=
EXTT11=
EXTT12=
EXTT13=
EXTT14=
EXTT15=
EXTT16=
EXTT17=
EXTT18=
PLAYORDER=
